<svg width="25" height="25" viewBox="0 0 25 25" fill="none" xmlns="http://www.w3.org/2000/svg">
<path fill-rule="evenodd" clip-rule="evenodd" d="M2.08301 5.33854C2.08301 4.11637 3.07438 3.125 4.29655 3.125H16.0153C17.2375 3.125 18.2288 4.11637 18.2288 5.33854V7.03125H20.7028C21.925 7.03125 22.9163 8.02262 22.9163 9.24479V19.0104C22.9163 19.9083 22.5597 20.7694 21.9248 21.4043C21.2899 22.0392 20.4288 22.3958 19.5309 22.3958H5.46842C4.57056 22.3958 3.70946 22.0392 3.07457 21.4043C2.43968 20.7694 2.08301 19.9083 2.08301 19.0104V5.33854ZM16.4059 20.3125H5.46842C5.12309 20.3125 4.7919 20.1753 4.54771 19.9311C4.30352 19.6869 4.16634 19.3558 4.16634 19.0104V5.33854C4.16634 5.26696 4.22497 5.20833 4.29655 5.20833H16.0153C16.0869 5.20833 16.1455 5.26696 16.1455 5.33854V19.0104C16.1455 19.4618 16.2356 19.9038 16.4059 20.3125ZM18.2288 9.11458V19.0104C18.2288 19.3558 18.366 19.6869 18.6102 19.9311C18.8544 20.1753 19.1856 20.3125 19.5309 20.3125C19.8763 20.3125 20.2074 20.1753 20.4516 19.9311C20.6958 19.6869 20.833 19.3558 20.833 19.0104V9.24479C20.833 9.17321 20.7744 9.11458 20.7028 9.11458H18.2288Z" fill="white"/>
<path fill-rule="evenodd" clip-rule="evenodd" d="M6 8.30078C6 7.7485 6.44772 7.30078 7 7.30078H13.5C14.0523 7.30078 14.5 7.7485 14.5 8.30078V12.3008C14.5 12.8531 14.0523 13.3008 13.5 13.3008H7C6.44772 13.3008 6 12.8531 6 12.3008V8.30078ZM8 9.30078V11.3008H12.5V9.30078H8Z" fill="white"/>
<path fill-rule="evenodd" clip-rule="evenodd" d="M6 16C6 15.4477 6.44772 15 7 15H13.5C14.0523 15 14.5 15.4477 14.5 16V16C14.5 16.5523 14.0523 17 13.5 17H7C6.44772 17 6 16.5523 6 16V16ZM8 15.6667V15.6667H12.5H8Z" fill="white"/>
</svg>
