<svg width="25" height="25" viewBox="0 0 25 25" fill="none" xmlns="http://www.w3.org/2000/svg">
<path fill-rule="evenodd" clip-rule="evenodd" d="M9.54559 1.14154C9.90911 0.969106 10.3394 1.02144 10.651 1.27598C10.7881 1.38795 10.9445 1.51148 11.1159 1.64692C12.1496 2.46346 13.7312 3.7128 14.9317 5.4714L14.9317 5.47143C15.6657 6.54675 16.2473 7.93428 16.6394 9.04738C16.6896 9.18977 16.7371 9.32893 16.7818 9.46381C17.0159 9.06886 17.2111 8.56192 17.2887 7.91137C17.342 7.46483 17.6758 7.10288 18.1166 7.01373C18.5574 6.92458 19.0056 7.12838 19.2282 7.51913C19.5398 8.06614 19.7533 8.44438 19.961 8.92047C20.1648 9.38752 20.3565 9.93304 20.6524 10.8224L20.6524 10.8224C21.2916 12.7436 21.3537 14.0098 21.3537 15.1546C21.3537 20.1077 17.3485 23.9577 12.4997 23.9577C7.6811 23.9577 3.64551 20.3037 3.64551 15.3213C3.64551 14.2209 3.76129 12.5105 4.5954 11.1542L4.59542 11.1542C5.16379 10.2301 5.57541 9.78853 6.07679 9.25066C6.22513 9.09152 6.38132 8.92396 6.55175 8.73298L6.55178 8.73295C6.69803 8.56908 6.8149 8.44048 6.91235 8.33324C7.10943 8.11637 7.22708 7.98691 7.34767 7.8299C7.50504 7.625 7.66388 7.37271 7.97859 6.78085C8.23208 6.30409 8.48116 5.51948 8.66604 4.61341C8.84815 3.72082 8.95035 2.79788 8.95035 2.08269C8.95035 1.68035 9.18206 1.31398 9.54559 1.14154ZM10.8663 4.12912C10.8212 4.43092 10.7678 4.73335 10.7073 5.0299C10.5063 6.01491 10.2086 7.02448 9.81806 7.75892C9.48875 8.37825 9.26511 8.75362 8.99991 9.09891C8.82447 9.32733 8.62457 9.54741 8.39009 9.80555C8.30066 9.90401 8.2062 10.008 8.10614 10.1201M10.8663 4.12912C11.6663 4.80736 12.5107 5.62009 13.211 6.64597C13.7931 7.49877 14.3035 8.68654 14.6744 9.73956C14.8569 10.2575 14.9991 10.724 15.0944 11.0731C15.1422 11.2482 15.1767 11.3878 15.1982 11.4858C15.2091 11.5356 15.2144 11.5645 15.2166 11.5768C15.2433 11.9433 15.4621 12.271 15.7951 12.4351C16.1509 12.6105 16.5755 12.5684 16.8901 12.3267C16.9112 12.3105 16.9369 12.2914 16.9666 12.2693C17.2448 12.0624 17.8784 11.5912 18.4304 10.7547C18.5017 10.9609 18.5821 11.1991 18.6756 11.4801C19.2237 13.1275 19.2704 14.1574 19.2704 15.1546C19.2704 18.9266 16.2287 21.8744 12.4997 21.8744C8.74043 21.8744 5.72884 19.0639 5.72884 15.3213C5.72884 14.2797 5.85884 13.0768 6.36997 12.2457C6.82302 11.5091 7.08574 11.2268 7.54587 10.7323C7.70404 10.5623 7.88554 10.3673 8.10612 10.1201" fill="white"/>
</svg>
