<svg width="26" height="26" viewBox="0 0 26 26" fill="none" xmlns="http://www.w3.org/2000/svg">
<g clip-path="url(#clip0_516_572)">
<path d="M5.71082 6.9644C4.27515 7.46146 3.24425 8.82542 3.24425 10.4302V18.9857C3.24425 21.0108 4.88587 22.6524 6.91092 22.6524H15.4665C17.0712 22.6524 18.4352 21.6215 18.9322 20.1858C19.1531 19.548 19.6803 18.9857 20.3554 18.9857C21.0304 18.9857 21.5903 19.5384 21.4569 20.2001C20.8937 22.9934 18.4257 25.0968 15.4665 25.0968H6.91092C3.53584 25.0968 0.799805 22.3608 0.799805 18.9857V10.4302C0.799805 7.47091 2.90321 5.00292 5.6965 4.43972C6.3582 4.30631 6.91092 4.86627 6.91092 5.54128C6.91092 6.2163 6.34869 6.74356 5.71082 6.9644Z" fill="white"/>
<path fill-rule="evenodd" clip-rule="evenodd" d="M16.2994 15.9544C17.5131 15.9544 18.6995 15.5945 19.7086 14.9202C20.7177 14.2459 21.5043 13.2876 21.9687 12.1663C22.4332 11.045 22.5547 9.8112 22.3179 8.62086C22.0811 7.43052 21.4967 6.33713 20.6385 5.47894C19.7803 4.62075 18.6869 4.03632 17.4966 3.79955C16.3063 3.56278 15.0724 3.6843 13.9512 4.14874C12.8299 4.61319 11.8715 5.3997 11.1972 6.40882C10.523 7.41794 10.1631 8.60435 10.1631 9.818C10.1631 10.5711 9.55256 11.1816 8.79945 11.1816C8.04633 11.1816 7.43581 10.5711 7.43581 9.81801C7.43581 8.06494 7.95565 6.35125 8.9296 4.89363C9.90355 3.43601 11.2879 2.29994 12.9075 1.62907C14.5271 0.958205 16.3093 0.782676 18.0287 1.12468C19.748 1.46669 21.3274 2.31086 22.567 3.55047C23.8066 4.79007 24.6508 6.36942 24.9928 8.08879C25.3348 9.80817 25.1592 11.5904 24.4884 13.21C23.8175 14.8296 22.6814 16.2139 21.2238 17.1878L20.4662 16.054L21.2238 17.1878C19.7662 18.1618 18.0525 18.6816 16.2994 18.6816C15.5463 18.6816 14.9358 18.0711 14.9358 17.318C14.9358 16.5649 15.5463 15.9544 16.2994 15.9544Z" fill="white"/>
<path fill-rule="evenodd" clip-rule="evenodd" d="M16.3 11.6524C16.5966 11.6524 16.8866 11.5645 17.1333 11.3996C17.3799 11.2348 17.5722 11.0006 17.6857 10.7265C17.7992 10.4524 17.8289 10.1508 17.7711 9.85987C17.7132 9.56891 17.5703 9.30165 17.3606 9.09188C17.1508 8.88211 16.8835 8.73926 16.5926 8.68138C16.3016 8.62351 16 8.65321 15.726 8.76674C15.4519 8.88026 15.2176 9.07251 15.0528 9.31918C14.888 9.56584 14.8 9.85584 14.8 10.1525C14.8 10.7048 14.3523 11.1525 13.8001 11.1525C13.2478 11.1525 12.8001 10.7048 12.8001 10.1525C12.8001 9.46029 13.0054 8.78363 13.3899 8.20808C13.7745 7.63254 14.3211 7.18395 14.9606 6.91906C15.6001 6.65416 16.3038 6.58485 16.9827 6.7199C17.6616 6.85494 18.2853 7.18827 18.7747 7.67773C19.2642 8.16719 19.5975 8.79081 19.7326 9.46971C19.8676 10.1486 19.7983 10.8523 19.5334 11.4918C19.2685 12.1313 18.8199 12.6779 18.2444 13.0625C17.6688 13.4471 16.9922 13.6523 16.3 13.6523C15.7477 13.6523 15.3 13.2046 15.3 12.6524C15.3 12.1001 15.7477 11.6524 16.3 11.6524Z" fill="white"/>
</g>
<defs>
<clipPath id="clip0_516_572">
<rect width="26" height="26" fill="white"/>
</clipPath>
</defs>
</svg>
