<svg width="20" height="20" viewBox="0 0 20 20" fill="none" xmlns="http://www.w3.org/2000/svg">
<path fill-rule="evenodd" clip-rule="evenodd" d="M1.89941 6.99273C1.89941 5.43266 3.1641 4.16797 4.72418 4.16797H15.27C16.83 4.16797 18.0947 5.43266 18.0947 6.99273V15.2693C18.0947 16.8294 16.83 18.094 15.27 18.094H4.72418C3.1641 18.094 1.89941 16.8294 1.89941 15.2693V6.99273ZM4.72418 5.29787C3.78813 5.29787 3.02932 6.05669 3.02932 6.99273V15.2693C3.02932 16.2053 3.78813 16.9641 4.72418 16.9641H15.27C16.206 16.9641 16.9648 16.2053 16.9648 15.2693V6.99273C16.9648 6.05669 16.206 5.29787 15.27 5.29787H4.72418Z" fill="white"/>
<path fill-rule="evenodd" clip-rule="evenodd" d="M6.22999 1.89824C6.54201 1.89814 6.79503 2.15099 6.79514 2.463L6.79591 4.73241C6.79602 5.04443 6.54317 5.29745 6.23115 5.29756C5.91914 5.29767 5.66611 5.04481 5.66601 4.7328L5.66523 2.46339C5.66513 2.15138 5.91798 1.89835 6.22999 1.89824Z" fill="white"/>
<path fill-rule="evenodd" clip-rule="evenodd" d="M13.7622 1.89844C14.0742 1.89844 14.3272 2.15138 14.3272 2.46339V4.44568C14.3272 4.7577 14.0742 5.01063 13.7622 5.01063C13.4502 5.01063 13.1973 4.7577 13.1973 4.44568V2.46339C13.1973 2.15138 13.4502 1.89844 13.7622 1.89844Z" fill="white"/>
<path fill-rule="evenodd" clip-rule="evenodd" d="M4.91113 8.01417C4.91113 7.70216 5.16407 7.44922 5.47609 7.44922L14.5153 7.44922C14.8273 7.44922 15.0803 7.70216 15.0803 8.01417C15.0803 8.32619 14.8273 8.57912 14.5153 8.57912L5.47609 8.57912C5.16407 8.57912 4.91113 8.32619 4.91113 8.01417Z" fill="white"/>
</svg>
