<svg width="20" height="20" viewBox="0 0 20 20" fill="none" xmlns="http://www.w3.org/2000/svg">
<path fill-rule="evenodd" clip-rule="evenodd" d="M16.2454 2.61167C16.4299 2.50051 16.6503 2.46515 16.8604 2.51301C17.0705 2.56086 17.2538 2.68821 17.372 2.86833L18.197 4.12667C18.3048 4.29113 18.3509 4.4884 18.3273 4.6836C18.3037 4.8788 18.2118 5.05935 18.0679 5.19333L18.0654 5.19667L18.0537 5.2075L18.0062 5.25167L17.8187 5.43083C16.7812 6.43716 15.7751 7.47544 14.802 8.54417C12.9712 10.5575 10.797 13.1925 9.33369 15.7492C8.92536 16.4625 7.92786 16.6158 7.33619 16L1.93202 10.385C1.85458 10.3045 1.7941 10.2093 1.7542 10.1049C1.7143 10.0006 1.69578 9.8893 1.69974 9.77766C1.70371 9.66603 1.73008 9.55633 1.77728 9.45509C1.82448 9.35385 1.89156 9.26313 1.97452 9.18833L3.60785 7.715C3.75139 7.58559 3.93544 7.51009 4.1285 7.50143C4.32156 7.49276 4.51164 7.55147 4.66619 7.6675L7.42369 9.735C11.7304 5.4875 14.1737 3.8575 16.2454 2.61167Z" fill="#6E42ED"/>
</svg>
