<svg width="20" height="20" viewBox="0 0 20 20" fill="none" xmlns="http://www.w3.org/2000/svg">
<path fill-rule="evenodd" clip-rule="evenodd" d="M4.64648 4.45005C4.64648 2.82078 5.96727 1.5 7.59654 1.5H15.4633C17.0926 1.5 18.4134 2.82078 18.4134 4.45005V8.38346C18.4134 10.0127 17.0926 11.3335 15.4633 11.3335H15.07C14.5269 11.3335 14.0867 10.8933 14.0867 10.3502V7.20344C14.0867 6.44311 13.4703 5.82675 12.71 5.82675H6.02318C5.26285 5.82675 4.64648 5.21038 4.64648 4.45005ZM7.59654 2.68002C6.61898 2.68002 5.82651 3.47249 5.82651 4.45005C5.82651 4.55867 5.91456 4.64672 6.02318 4.64672H12.71C14.122 4.64672 15.2667 5.7914 15.2667 7.20344V10.1535H15.4633C16.4409 10.1535 17.2334 9.36102 17.2334 8.38346V4.45005C17.2334 3.47249 16.4409 2.68002 15.4633 2.68002H7.59654Z" fill="white"/>
<path fill-rule="evenodd" clip-rule="evenodd" d="M1.5 7.59654C1.5 5.96727 2.82078 4.64648 4.45005 4.64648H12.3169C13.9461 4.64648 15.2669 5.96727 15.2669 7.59654V11.7922C15.2669 13.4214 13.9461 14.7422 12.3169 14.7422H9.54382L6.47606 18.1224C5.83861 18.8248 4.67433 18.3067 4.7695 17.3629L5.03377 14.7422H4.45005C2.82079 14.7422 1.5 13.4214 1.5 11.7922V7.59654ZM4.45005 5.82651C3.47249 5.82651 2.68002 6.61897 2.68002 7.59654V11.7922C2.68002 12.7697 3.47249 13.5622 4.45005 13.5622H5.25127C5.83337 13.5622 6.28806 14.0651 6.22966 14.6442L6.00346 16.8873L8.72855 13.8847C8.91494 13.6793 9.17938 13.5622 9.45672 13.5622H12.3169C13.2944 13.5622 14.0869 12.7697 14.0869 11.7922V7.59654C14.0869 6.61898 13.2944 5.82651 12.3169 5.82651H4.45005Z" fill="white"/>
</svg>
