<svg width="24" height="24" viewBox="0 0 24 24" fill="none" xmlns="http://www.w3.org/2000/svg">
<path fill-rule="evenodd" clip-rule="evenodd" d="M20.3002 4.70627C20.8666 5.2603 21.3196 5.91948 21.6338 6.64689C21.9596 7.40392 22.126 8.20783 22.1236 9.03517C22.1236 9.81564 21.9643 10.6289 21.6479 11.4563C21.3854 12.1477 21.0033 12.8649 20.5182 13.5891C19.7494 14.7352 18.6924 15.9305 17.3799 17.1422C15.2025 19.1508 13.051 20.536 12.9596 20.5945L12.4041 20.9508C12.158 21.1078 11.8416 21.1078 11.5955 20.9508L11.04 20.5945C10.9486 20.5383 8.79473 19.1508 6.61973 17.1422C5.30723 15.9305 4.2502 14.7352 3.48145 13.5891C2.99629 12.8649 2.6166 12.1477 2.35176 11.4563C2.03535 10.6289 1.87598 9.81564 1.87598 9.03517C1.87598 8.20783 2.04238 7.40392 2.36816 6.64689C2.68147 5.91901 3.13456 5.25968 3.70176 4.70627C4.27129 4.14845 4.93457 3.71017 5.67051 3.40549C6.43223 3.08908 7.23848 2.9297 8.07051 2.9297C9.22598 2.9297 10.3533 3.24611 11.333 3.84377C11.5674 3.98674 11.79 4.14377 12.001 4.31486C12.2119 4.14377 12.4346 3.98674 12.6689 3.84377C13.6486 3.24611 14.776 2.9297 15.9314 2.9297C16.7551 2.92781 17.5708 3.08953 18.3314 3.40549C19.065 3.70898 19.7333 4.15058 20.3002 4.70627Z" fill="white"/>
</svg>
