<svg width="24" height="24" viewBox="0 0 24 24" fill="none" xmlns="http://www.w3.org/2000/svg">
<g clip-path="url(#clip0_512_440)">
<path fill-rule="evenodd" clip-rule="evenodd" d="M11.4996 3.44055C7.04816 3.44055 3.43957 7.04913 3.43957 11.5005C3.43957 15.952 7.04816 19.5605 11.4996 19.5605C15.951 19.5605 19.5596 15.952 19.5596 11.5005C19.5596 7.04913 15.951 3.44055 11.4996 3.44055ZM0.55957 11.5005C0.55957 5.45855 5.45757 0.560547 11.4996 0.560547C17.5416 0.560547 22.4396 5.45855 22.4396 11.5005C22.4396 17.5425 17.5416 22.4405 11.4996 22.4405C5.45757 22.4405 0.55957 17.5425 0.55957 11.5005Z" fill="white"/>
<path fill-rule="evenodd" clip-rule="evenodd" d="M17.4813 17.4823C18.0437 16.92 18.9554 16.92 19.5178 17.4823L23.0178 20.9823C23.5802 21.5447 23.5802 22.4564 23.0178 23.0188C22.4554 23.5811 21.5437 23.5811 20.9813 23.0188L17.4813 19.5188C16.919 18.9564 16.919 18.0447 17.4813 17.4823Z" fill="white"/>
</g>
<defs>
<clipPath id="clip0_512_440">
<rect width="24" height="24" fill="white"/>
</clipPath>
</defs>
</svg>
