<svg width="20" height="20" viewBox="0 0 20 20" fill="none" xmlns="http://www.w3.org/2000/svg">
<path fill-rule="evenodd" clip-rule="evenodd" d="M1.50784 10.0121C1.50559 10.3291 1.6254 10.6468 1.86727 10.8887C1.90936 10.9308 1.95375 10.9692 2.00004 11.0039L9.37766 18.3815C9.85693 18.8607 10.634 18.8607 11.1133 18.3815C11.5925 17.9022 11.5925 17.1251 11.1133 16.6459L5.53653 11.0691L17.7713 11.0691C18.4491 11.0691 18.9986 10.5197 18.9986 9.84187C18.9986 9.16407 18.4491 8.61461 17.7713 8.61461L5.87693 8.6146L11.1133 3.37827C11.5925 2.89899 11.5925 2.12194 11.1133 1.64266C10.634 1.16339 9.85693 1.16339 9.37766 1.64266L2.00003 9.02028C1.95375 9.05498 1.90936 9.09338 1.86727 9.13547C1.6254 9.37735 1.50559 9.69506 1.50784 10.0121Z" fill="#35313F"/>
</svg>
