<svg width="26" height="26" viewBox="0 0 26 26" fill="none" xmlns="http://www.w3.org/2000/svg">
<g clip-path="url(#clip0_516_573)">
<path d="M13.783 13.9334L23.9585 17.8108L17.6757 24.069L13.783 13.9334Z" fill="white"/>
<path d="M18.9746 20.4043L20.2767 19.1073L25.1133 23.9248L23.8111 25.2219L18.9746 20.4043Z" fill="white"/>
<path fill-rule="evenodd" clip-rule="evenodd" d="M11.258 11.4165L21.8154 11.4165C21.8154 10.7347 21.7489 10.058 21.6186 9.39539C21.3514 8.03638 20.816 6.73657 20.0362 5.57405C18.8761 3.84469 17.2273 2.49682 15.2982 1.70088C13.369 0.904947 11.2463 0.696693 9.19834 1.10246C7.1504 1.50822 5.26924 2.50978 3.79276 3.98048C2.31628 5.45118 1.31078 7.32496 0.903417 9.36488C0.496057 11.4048 0.705129 13.5192 1.5042 15.4408C2.30326 17.3623 3.65644 19.0047 5.3926 20.1603C6.56196 20.9385 7.86969 21.4724 9.23692 21.738C9.89962 21.8668 10.5763 21.9325 11.258 21.9325L11.258 11.4165ZM9.23692 19.6699L9.23692 9.39539L19.5492 9.39539C19.314 8.43988 18.9126 7.52704 18.3578 6.69995C17.4207 5.30306 16.088 4.21312 14.5273 3.56919C12.9665 2.92522 11.2486 2.7566 9.59115 3.085C7.93374 3.41338 6.41239 4.22375 5.21907 5.4124C4.02583 6.60096 3.21413 8.11432 2.88536 9.76066C2.55661 11.407 2.72526 13.1135 3.37035 14.6648C4.01547 16.2161 5.10848 17.5434 6.5124 18.4778C7.34764 19.0337 8.27048 19.4355 9.23692 19.6699Z" fill="white"/>
</g>
<defs>
<clipPath id="clip0_516_573">
<rect width="26" height="26" fill="white"/>
</clipPath>
</defs>
</svg>
