<svg width="20" height="20" viewBox="0 0 20 20" fill="none" xmlns="http://www.w3.org/2000/svg">
<path fill-rule="evenodd" clip-rule="evenodd" d="M8.54044 1.9572C8.99997 0.542911 11.0008 0.542911 11.4604 1.9572L12.9721 6.60982H17.8641C19.3512 6.60982 19.9695 8.51274 18.7664 9.38682L14.8087 12.2623L16.3204 16.9149C16.7799 18.3292 15.1612 19.5053 13.9582 18.6312L10.0004 15.7557L6.04264 18.6312C4.83957 19.5053 3.22086 18.3292 3.68039 16.9149L5.19211 12.2623L1.23436 9.38682C0.0312912 8.51274 0.649589 6.60982 2.13666 6.60982H7.02872L8.54044 1.9572ZM10.0004 3.93606L8.82645 7.5491C8.62094 8.18159 8.03153 8.60982 7.36649 8.60982H3.56752L6.64095 10.8428C7.17898 11.2337 7.40412 11.9266 7.19861 12.5591L6.02466 16.1721L9.0981 13.9391C9.63612 13.5482 10.3647 13.5482 10.9027 13.9391L13.9761 16.1721L12.8022 12.5591C12.5967 11.9266 12.8218 11.2337 13.3598 10.8428L16.4333 8.60982H12.6343C11.9693 8.60982 11.3799 8.18159 11.1743 7.5491L10.0004 3.93606Z" fill="#35313F"/>
</svg>
