<svg width="28" height="28" viewBox="0 0 28 28" fill="none" xmlns="http://www.w3.org/2000/svg">
<path fill-rule="evenodd" clip-rule="evenodd" d="M25.4804 7.06582C25.5313 6.75702 25.4984 6.44023 25.3853 6.14845C25.2721 5.85666 25.0828 5.60056 24.837 5.40684C24.5912 5.21311 24.2979 5.08884 23.9878 5.04698C23.6776 5.00511 23.3619 5.04719 23.0736 5.16882L3.12356 13.5688C1.7329 14.1545 1.66173 16.1658 3.12356 16.7725C4.57107 17.3762 6.03967 17.928 7.52657 18.4268C8.88923 18.8772 10.3756 19.2937 11.5667 19.4115C11.8922 19.8012 12.3017 20.1757 12.7194 20.5198C13.3576 21.0448 14.1252 21.585 14.9186 22.103C16.5076 23.1413 18.2704 24.1342 19.4581 24.7805C20.8779 25.5505 22.5777 24.6638 22.8321 23.1157L25.4804 7.06582ZM5.36006 15.1578L23.0047 7.72965L20.5337 22.7097C19.3682 22.0762 17.6894 21.1277 16.1937 20.15C15.5044 19.7074 14.8389 19.2288 14.1999 18.7162C14.0291 18.5767 13.8633 18.4311 13.7029 18.2798L18.3241 13.6598C18.543 13.4411 18.666 13.1443 18.6661 12.8348C18.6662 12.5253 18.5434 12.2285 18.3246 12.0096C18.1059 11.7907 17.8091 11.6676 17.4996 11.6675C17.1902 11.6674 16.8933 11.7902 16.6744 12.009L11.6146 17.0688C10.7582 16.9592 9.5659 16.6418 8.2569 16.2102C7.28238 15.8855 6.31564 15.5346 5.36006 15.1578Z" fill="white"/>
</svg>
