<svg width="28" height="28" viewBox="0 0 28 28" fill="none" xmlns="http://www.w3.org/2000/svg">
<path d="M25.0868 21.4438H22.4257C21.4188 21.4438 21.1155 20.6283 19.3107 18.8223C17.7333 17.3021 17.0672 17.1131 16.6682 17.1131C16.1163 17.1131 15.9658 17.2648 15.9658 18.0243V20.4183C15.9658 21.0658 15.7558 21.4449 14.0642 21.4449C12.423 21.3347 10.8315 20.8361 9.4208 19.9903C8.01007 19.1444 6.82048 17.9756 5.95 16.5799C3.88312 14.0074 2.44499 10.9882 1.75 7.76225C1.75 7.36325 1.90167 7.00158 2.66233 7.00158H5.32233C6.006 7.00158 6.25217 7.30608 6.5205 8.00958C7.812 11.8106 10.0158 15.1169 10.9107 15.1169C11.2537 15.1169 11.403 14.9653 11.403 14.1101V10.1948C11.2898 8.40858 10.3413 8.25808 10.3413 7.61175C10.3533 7.44123 10.4313 7.28211 10.5588 7.16818C10.6862 7.05424 10.853 6.99448 11.0238 7.00158H15.2052C15.7768 7.00158 15.9658 7.28625 15.9658 7.96992V13.2549C15.9658 13.8254 16.2108 14.0144 16.3835 14.0144C16.7265 14.0144 16.9902 13.8254 17.619 13.1977C18.9669 11.5539 20.0681 9.72245 20.888 7.76108C20.9719 7.5256 21.1306 7.32402 21.3397 7.1871C21.5489 7.05019 21.7971 6.98544 22.0465 7.00275H24.7077C25.5057 7.00275 25.6748 7.40175 25.5057 7.97108C24.5378 10.1392 23.3401 12.1973 21.9333 14.1101C21.6463 14.5476 21.532 14.7751 21.9333 15.2884C22.197 15.6874 23.1303 16.4668 23.7568 17.2076C24.6692 18.1176 25.4263 19.1699 25.9992 20.3226C26.2278 21.0646 25.8463 21.4438 25.0868 21.4438Z" fill="white"/>
</svg>
