<svg width="28" height="28" viewBox="0 0 28 28" fill="none" xmlns="http://www.w3.org/2000/svg">
<path d="M22.7516 5.13445C21.6054 3.9777 20.2405 3.06061 18.7364 2.43665C17.2323 1.81268 15.619 1.49431 13.9906 1.50008C7.16719 1.50008 1.60625 7.05945 1.6 13.8845C1.6 16.0704 2.17188 18.197 3.25156 20.0798L1.5 26.5001L8.06875 24.7782C9.88594 25.7671 11.9218 26.2855 13.9906 26.286H13.9969C20.8219 26.286 26.3813 20.7266 26.3875 13.8954C26.3891 12.2673 26.0685 10.6551 25.4442 9.15145C24.8199 7.64784 23.9058 6.28263 22.7516 5.13445ZM13.9906 24.1891C12.1453 24.1898 10.3339 23.6932 8.74687 22.7516L8.37187 22.5266L4.475 23.5485L5.51562 19.747L5.27188 19.3548C4.24032 17.7146 3.69476 15.8157 3.69844 13.8782C3.69844 8.21258 8.31875 3.5907 13.9969 3.5907C15.3496 3.58828 16.6894 3.85363 17.9391 4.37147C19.1888 4.88931 20.3236 5.64939 21.2781 6.60789C22.236 7.56265 22.9953 8.69762 23.5124 9.94731C24.0294 11.197 24.2939 12.5367 24.2906 13.8891C24.2844 19.5751 19.6641 24.1891 13.9906 24.1891ZM19.6391 16.4798C19.3313 16.3251 17.8109 15.5766 17.525 15.4704C17.2406 15.3688 17.0328 15.3157 16.8297 15.6251C16.6219 15.9329 16.0281 16.6345 15.85 16.836C15.6719 17.0438 15.4875 17.0673 15.1781 16.9141C14.8703 16.7579 13.8719 16.4329 12.6906 15.3751C11.7688 14.5548 11.1516 13.5391 10.9672 13.2313C10.7891 12.922 10.95 12.7563 11.1047 12.6016C11.2406 12.4641 11.4125 12.2391 11.5672 12.061C11.7234 11.8829 11.775 11.7516 11.8766 11.5454C11.9781 11.336 11.9297 11.1579 11.8531 11.0032C11.775 10.8485 11.1578 9.32195 10.8969 8.70633C10.6469 8.09851 10.3922 8.18289 10.2016 8.17508C10.0234 8.16414 9.81563 8.16414 9.60781 8.16414C9.45088 8.16804 9.29645 8.20434 9.15421 8.27075C9.01197 8.33716 8.88499 8.43226 8.78125 8.55008C8.49688 8.85945 7.70156 9.60789 7.70156 11.1345C7.70156 12.661 8.81094 14.1282 8.96719 14.336C9.12031 14.5438 11.1453 17.6673 14.2531 19.011C14.9875 19.3313 15.5656 19.5204 16.0172 19.6641C16.7594 19.9016 17.4297 19.8657 17.9641 19.7891C18.5578 19.6985 19.7938 19.0391 20.0547 18.3157C20.3109 17.5907 20.3109 16.972 20.2328 16.8423C20.1563 16.711 19.9484 16.6345 19.6391 16.4798Z" fill="white"/>
</svg>
