<svg width="20" height="20" viewBox="0 0 20 20" fill="none" xmlns="http://www.w3.org/2000/svg">
<path fill-rule="evenodd" clip-rule="evenodd" d="M2.42861 10.2154C2.86026 10.7099 3.69629 11.6024 4.78888 12.4577C6.2588 13.6085 8.10347 14.6211 10 14.6211C11.8965 14.6211 13.7412 13.6085 15.2111 12.4577C16.3037 11.6024 17.1397 10.7099 17.5714 10.2154C17.1397 9.72084 16.3037 8.82835 15.2111 7.973C13.7412 6.82227 11.8965 5.80958 10 5.80958C8.10347 5.80958 6.2588 6.82227 4.78888 7.973C3.69629 8.82835 2.86026 9.72084 2.42861 10.2154ZM4.01292 6.98181C5.56071 5.77012 7.68228 4.55078 10 4.55078C12.3177 4.55078 14.4393 5.77012 15.9871 6.98181C17.549 8.20459 18.6179 9.49182 18.8427 9.77104C19.0524 10.0314 19.0524 10.3993 18.8427 10.6597C18.6179 10.9389 17.549 12.2261 15.9871 13.4489C14.4393 14.6606 12.3177 15.8799 10 15.8799C7.68228 15.8799 5.56071 14.6606 4.01293 13.4489C2.45099 12.2261 1.38213 10.9389 1.15726 10.6597C0.947583 10.3993 0.947574 10.0314 1.15726 9.77104C1.38213 9.49182 2.45099 8.20459 4.01292 6.98181Z" fill="white"/>
<path fill-rule="evenodd" clip-rule="evenodd" d="M9.99855 8.3252C8.95573 8.3252 8.11036 9.17057 8.11036 10.2134C8.11036 11.2562 8.95573 12.1016 9.99855 12.1016C11.0414 12.1016 11.8867 11.2562 11.8867 10.2134C11.8867 9.17057 11.0414 8.3252 9.99855 8.3252ZM6.85156 10.2134C6.85156 8.47536 8.26052 7.06641 9.99855 7.06641C11.7366 7.06641 13.1455 8.47536 13.1455 10.2134C13.1455 11.9514 11.7366 13.3604 9.99855 13.3604C8.26052 13.3604 6.85156 11.9514 6.85156 10.2134Z" fill="white"/>
</svg>
