<svg width="24" height="24" viewBox="0 0 24 24" fill="none" xmlns="http://www.w3.org/2000/svg">
<path fill-rule="evenodd" clip-rule="evenodd" d="M0 4C0 4.82843 0.539596 5.5 1.20522 5.5L22.7948 5.5C23.4604 5.5 24 4.82843 24 4C24 3.17157 23.4604 2.5 22.7948 2.5L1.20522 2.5C0.539596 2.5 0 3.17157 0 4Z" fill="#6E42ED"/>
<path fill-rule="evenodd" clip-rule="evenodd" d="M0 12C0 12.8284 0.539596 13.5 1.20522 13.5L22.7948 13.5C23.4604 13.5 24 12.8284 24 12C24 11.1716 23.4604 10.5 22.7948 10.5L1.20522 10.5C0.539596 10.5 0 11.1716 0 12Z" fill="#6E42ED"/>
<path fill-rule="evenodd" clip-rule="evenodd" d="M0 20C0 20.8284 0.539596 21.5 1.20522 21.5H22.7948C23.4604 21.5 24 20.8284 24 20C24 19.1716 23.4604 18.5 22.7948 18.5H1.20522C0.539596 18.5 0 19.1716 0 20Z" fill="#6E42ED"/>
</svg>
