<svg width="24" height="24" viewBox="0 0 24 24" fill="none" xmlns="http://www.w3.org/2000/svg">
<path d="M19.9016 14.1628C19.3969 15.8105 18.3854 17.2569 17.011 18.2964C15.8043 19.2046 14.3684 19.7585 12.8644 19.8959C11.3605 20.0334 9.84795 19.7489 8.49667 19.0745C7.14538 18.4001 6.00881 17.3624 5.21452 16.0779C4.42024 14.7934 3.99967 13.3129 4.00004 11.8027C3.99461 10.0399 4.56766 8.32404 5.63129 6.9183C6.67077 5.54392 8.11725 4.5324 9.76488 4.02768C9.87347 3.99424 9.98913 3.99104 10.0994 4.01841C10.2097 4.04579 10.3104 4.10271 10.3907 4.18306C10.4711 4.2634 10.528 4.36413 10.5554 4.4744C10.5828 4.58468 10.5796 4.70033 10.5461 4.80893C10.1859 6.00067 10.1556 7.26783 10.4587 8.47538C10.7618 9.68294 11.3868 10.7856 12.2672 11.666C13.1475 12.5464 14.2502 13.1714 15.4578 13.4745C16.6654 13.7775 17.9325 13.7473 19.1243 13.3871C19.2328 13.3536 19.3485 13.3504 19.4588 13.3778C19.5691 13.4052 19.6698 13.4621 19.7501 13.5424C19.8305 13.6228 19.8874 13.7235 19.9148 13.8338C19.9421 13.9441 19.9389 14.0597 19.9055 14.1683L19.9016 14.1628Z" fill="white"/>
</svg>
