<svg width="25" height="25" viewBox="0 0 25 25" fill="none" xmlns="http://www.w3.org/2000/svg">
<path d="M16.6663 2.08398H8.33301C4.88613 2.08398 2.08301 4.88711 2.08301 8.33398V21.8756C2.08301 22.1519 2.19275 22.4169 2.3881 22.6122C2.58346 22.8076 2.84841 22.9173 3.12467 22.9173H16.6663C20.1132 22.9173 22.9163 20.1142 22.9163 16.6673V8.33398C22.9163 4.88711 20.1132 2.08398 16.6663 2.08398ZM20.833 16.6673C20.833 18.9652 18.9643 20.834 16.6663 20.834H4.16634V8.33398C4.16634 6.03607 6.03509 4.16732 8.33301 4.16732H16.6663C18.9643 4.16732 20.833 6.03607 20.833 8.33398V16.6673Z" fill="white"/>
<path d="M7.29199 15.6108V17.6931H9.37428L15.1337 11.941L13.0524 9.85977L7.29199 15.6108ZM16.1149 10.9598L14.0337 8.87643L15.6201 7.29102L17.7035 9.37331L16.1149 10.9598Z" fill="white"/>
</svg>
