<svg width="20" height="20" viewBox="0 0 20 20" fill="none" xmlns="http://www.w3.org/2000/svg">
<path fill-rule="evenodd" clip-rule="evenodd" d="M18.4902 10.0133C18.4925 9.69632 18.3727 9.3786 18.1308 9.13673C18.0887 9.09464 18.0443 9.05624 17.998 9.02154L10.6204 1.64392C10.1411 1.16464 9.36405 1.16464 8.88478 1.64392C8.4055 2.12319 8.4055 2.90025 8.88478 3.37953L14.4615 8.95626L2.22671 8.95626C1.54891 8.95626 0.999451 9.50573 0.999451 10.1835C0.999451 10.8613 1.54891 11.4108 2.22671 11.4108L14.1211 11.4108L8.88478 16.6471C8.4055 17.1264 8.4055 17.9035 8.88478 18.3827C9.36405 18.862 10.1411 18.862 10.6204 18.3827L17.998 11.0051C18.0443 10.9704 18.0887 10.932 18.1308 10.8899C18.3727 10.648 18.4925 10.3303 18.4902 10.0133Z" fill="#35313F"/>
</svg>
