<svg width="24" height="24" viewBox="0 0 24 24" fill="none" xmlns="http://www.w3.org/2000/svg">
<path fill-rule="evenodd" clip-rule="evenodd" d="M12 2.5C13.1046 2.5 14 3.39543 14 4.5L14 19.5C14 20.6046 13.1046 21.5 12 21.5C10.8954 21.5 10 20.6046 10 19.5L10 4.5C10 3.39543 10.8954 2.5 12 2.5Z" fill="white"/>
<path fill-rule="evenodd" clip-rule="evenodd" d="M2.5 12C2.5 10.8954 3.39543 10 4.5 10L19.5 10C20.6046 10 21.5 10.8954 21.5 12C21.5 13.1046 20.6046 14 19.5 14L4.5 14C3.39543 14 2.5 13.1046 2.5 12Z" fill="white"/>
</svg>
