<svg width="24" height="24" viewBox="0 0 24 24" fill="none" xmlns="http://www.w3.org/2000/svg">
<path fill-rule="evenodd" clip-rule="evenodd" d="M3.56066 1.43934C2.97487 0.853553 2.02513 0.853553 1.43934 1.43934C0.853553 2.02513 0.853553 2.97487 1.43934 3.56066L9.87868 12L1.43934 20.4393C0.853554 21.0251 0.853553 21.9749 1.43934 22.5607C2.02513 23.1464 2.97487 23.1464 3.56066 22.5607L12 14.1213L20.4393 22.5607C21.0251 23.1464 21.9749 23.1464 22.5607 22.5607C23.1464 21.9749 23.1464 21.0251 22.5607 20.4393L14.1213 12L22.5607 3.56066C23.1464 2.97487 23.1464 2.02513 22.5607 1.43934C21.9749 0.853553 21.0251 0.853553 20.4393 1.43934L12 9.87868L3.56066 1.43934Z" fill="white"/>
</svg>
