<svg width="24" height="24" viewBox="0 0 24 24" fill="none" xmlns="http://www.w3.org/2000/svg">
<path d="M6.74805 4.00047H10.212C10.4021 4.00053 10.585 4.07271 10.7238 4.20244C10.8627 4.33217 10.9471 4.50977 10.9601 4.69935C10.973 4.88893 10.9135 5.07636 10.7936 5.22377C10.6737 5.37117 10.5023 5.46757 10.314 5.49347L10.212 5.50047H6.74805C6.17808 5.50038 5.62932 5.71661 5.21262 6.10547C4.79591 6.49434 4.54231 7.02686 4.50305 7.59547L4.49805 7.75047V17.2505C4.49823 17.8204 4.71471 18.3691 5.10376 18.7856C5.49281 19.2021 6.02543 19.4555 6.59405 19.4945L6.74805 19.5005H16.248C16.8183 19.5008 17.3675 19.2845 17.7844 18.8954C18.2014 18.5063 18.455 17.9734 18.494 17.4045L18.499 17.2505V16.7525C18.4991 16.5624 18.5713 16.3795 18.701 16.2407C18.8307 16.1018 19.0083 16.0174 19.1979 16.0044C19.3875 15.9915 19.5749 16.051 19.7223 16.1709C19.8698 16.2908 19.9661 16.4622 19.992 16.6505L19.999 16.7525V17.2505C19.9989 18.2105 19.6305 19.1338 18.9699 19.8303C18.3093 20.5269 17.4067 20.9435 16.448 20.9945L16.248 21.0005H6.74805C5.78789 21.0005 4.86427 20.6323 4.16753 19.9717C3.47079 19.311 3.054 18.4083 3.00305 17.4495L2.99805 17.2495V7.74947C2.99822 6.78964 3.36642 5.86642 4.02683 5.16992C4.68725 4.47341 5.58959 4.05666 6.54805 4.00547L6.74805 4.00047ZM14.502 6.52047V3.75047C14.502 3.61251 14.5399 3.47721 14.6118 3.35943C14.6836 3.24166 14.7865 3.14599 14.9092 3.08293C15.0319 3.01987 15.1697 2.99188 15.3072 3.00203C15.4448 3.01218 15.5769 3.06009 15.689 3.14047L15.771 3.20847L21.766 8.95847C22.046 9.22747 22.071 9.65847 21.842 9.95647L21.766 10.0415L15.771 15.7935C15.6715 15.8891 15.5475 15.9553 15.4127 15.985C15.278 16.0147 15.1376 16.0066 15.0071 15.9616C14.8766 15.9166 14.7611 15.8365 14.6732 15.7301C14.5854 15.6237 14.5285 15.4951 14.509 15.3585L14.502 15.2515V12.5265L14.159 12.5565C11.759 12.8065 9.45905 13.8875 7.24405 15.8165C6.72405 16.2695 5.92205 15.8415 6.00705 15.1585C6.67205 9.83847 9.45405 6.90747 14.203 6.53947L14.503 6.51947L14.502 6.52047ZM16.002 5.50847V7.25047C16.002 7.44938 15.923 7.64014 15.7824 7.7808C15.6417 7.92145 15.451 8.00047 15.252 8.00047C11.379 8.00047 8.97805 9.67647 7.94105 13.1575L7.86105 13.4355L8.21405 13.1985C10.45 11.7375 12.8 11.0005 15.251 11.0005C15.4324 11.0005 15.6077 11.0663 15.7443 11.1856C15.8809 11.3049 15.9696 11.4697 15.994 11.6495L16.001 11.7505V13.4935L20.163 9.50047L16.003 5.50847H16.002Z" fill="#35313F"/>
</svg>
