<svg width="20" height="20" viewBox="0 0 20 20" fill="none" xmlns="http://www.w3.org/2000/svg">
<path d="M9.49154 2.26622C9.65171 1.77324 10.3492 1.77324 10.5093 2.26622L12.1254 7.24009C12.1971 7.46055 12.4025 7.60982 12.6343 7.60982H17.8642C18.3825 7.60982 18.598 8.27313 18.1787 8.57781L13.9477 11.6518C13.7601 11.7881 13.6816 12.0296 13.7533 12.2501L15.3694 17.2239C15.5296 17.7169 14.9653 18.1269 14.546 17.8222L10.315 14.7482C10.1274 14.6119 9.87346 14.6119 9.68592 14.7482L5.4549 17.8222C5.03554 18.1269 4.4713 17.7169 4.63148 17.2239L6.24759 12.2501C6.31922 12.0296 6.24075 11.7881 6.0532 11.6518L1.82218 8.57781C1.40283 8.27313 1.61835 7.60982 2.1367 7.60982H7.36653C7.59834 7.60982 7.80379 7.46055 7.87543 7.24009L9.49154 2.26622Z" fill="#35313F"/>
<path fill-rule="evenodd" clip-rule="evenodd" d="M8.54044 1.9572C8.99997 0.542911 11.0008 0.542911 11.4604 1.9572L12.9721 6.60982H17.8641C19.3512 6.60982 19.9695 8.51274 18.7664 9.38682L14.8087 12.2623L16.3204 16.9149C16.7799 18.3292 15.1612 19.5053 13.9582 18.6312L10.0004 15.7557L6.04264 18.6312C4.83957 19.5053 3.22086 18.3292 3.68039 16.9149L5.19211 12.2623L1.23436 9.38682C0.0312912 8.51274 0.649589 6.60982 2.13666 6.60982H7.02872L8.54044 1.9572ZM10.0004 3.93606L8.82645 7.5491C8.62094 8.18159 8.03153 8.60982 7.36649 8.60982H3.56752L6.64095 10.8428C7.17898 11.2337 7.40412 11.9266 7.19861 12.5591L6.02466 16.1721L9.0981 13.9391C9.63612 13.5482 10.3647 13.5482 10.9027 13.9391L13.9761 16.1721L12.8022 12.5591C12.5967 11.9266 12.8218 11.2337 13.3598 10.8428L16.4333 8.60982H12.6343C11.9693 8.60982 11.3799 8.18159 11.1743 7.5491L10.0004 3.93606Z" fill="#35313F"/>
</svg>
