<svg width="26" height="27" viewBox="0 0 26 27" fill="none" xmlns="http://www.w3.org/2000/svg">
<path fill-rule="evenodd" clip-rule="evenodd" d="M4.33268 3.8457C3.83137 3.8457 3.41602 4.26106 3.41602 4.76237V12.5863L5.90672 11.2451C6.08886 11.147 6.29249 11.0957 6.49935 11.0957H12.9993C13.2425 11.0957 13.4756 10.9991 13.6475 10.8272C13.8194 10.6553 13.916 10.4222 13.916 10.179V4.76237C13.916 4.51925 13.8194 4.2861 13.6475 4.11419C13.4756 3.94228 13.2425 3.8457 12.9993 3.8457H4.33268ZM0.916016 4.76237C0.916016 2.88035 2.45066 1.3457 4.33268 1.3457H12.9993C13.9055 1.3457 14.7745 1.70567 15.4153 2.34642C16.056 2.98717 16.416 3.85621 16.416 4.76237V10.179C16.416 11.0852 16.056 11.9542 15.4153 12.595C14.7745 13.2357 13.9055 13.5957 12.9993 13.5957H6.8145L2.75864 15.7796C2.37126 15.9882 1.90275 15.9778 1.52503 15.7522C1.14731 15.5266 0.916016 15.119 0.916016 14.679V4.76237ZM18.2493 10.179C18.2493 9.48868 18.809 8.92904 19.4993 8.92904H21.666C22.5722 8.92904 23.4412 9.28901 24.082 9.92976C24.7227 10.5705 25.0827 11.4395 25.0827 12.3457V22.2624C25.0827 22.7023 24.8514 23.1099 24.4737 23.3355C24.0959 23.5611 23.6274 23.5715 23.2401 23.363L19.1842 21.179H12.9993C12.0932 21.179 11.2242 20.8191 10.5834 20.1783C9.94265 19.5376 9.58268 18.6685 9.58268 17.7624V16.679C9.58268 15.9887 10.1423 15.429 10.8327 15.429C11.523 15.429 12.0827 15.9887 12.0827 16.679V17.7624C12.0827 18.0055 12.1793 18.2386 12.3512 18.4106C12.5231 18.5825 12.7562 18.679 12.9993 18.679H19.4993C19.7062 18.679 19.9098 18.7304 20.092 18.8284L22.5827 20.1696V12.3457C22.5827 12.1026 22.4861 11.8694 22.3142 11.6975C22.1423 11.5256 21.9091 11.429 21.666 11.429H19.4993C18.809 11.429 18.2493 10.8694 18.2493 10.179Z" fill="white"/>
</svg>
