<svg width="28" height="28" viewBox="0 0 28 28" fill="none" xmlns="http://www.w3.org/2000/svg">
<path d="M9.29232 7.23632C9.0755 7.20476 8.8544 7.2484 8.66582 7.35998H8.64949C8.21199 7.61665 7.81766 7.93982 7.48166 8.32015C7.20166 8.64332 7.04999 8.96998 7.01032 9.28498C6.98699 9.47165 7.00332 9.66065 7.05816 9.83915L7.07916 9.85082C7.39416 10.776 7.80482 11.6662 8.30649 12.5038C8.95335 13.6804 9.74937 14.7685 10.6748 15.7413L10.7028 15.781L10.7472 15.8137L10.774 15.8452L10.8067 15.8732C11.7828 16.8014 12.8735 17.6012 14.0523 18.2532C15.3998 18.987 16.2177 19.3335 16.7088 19.4782V19.4852C16.8523 19.5295 16.983 19.5493 17.1148 19.5493C17.5331 19.5184 17.929 19.3484 18.2395 19.0663C18.6187 18.7303 18.9395 18.3348 19.1892 17.895V17.8868C19.4237 17.4435 19.3443 17.0258 19.006 16.7423C18.3264 16.1485 17.5916 15.6211 16.8115 15.1673C16.2888 14.8838 15.758 15.0553 15.5433 15.3423L15.0848 15.921C14.8492 16.208 14.4222 16.1683 14.4222 16.1683L14.4105 16.1753C11.2243 15.3622 10.3738 12.1363 10.3738 12.1363C10.3738 12.1363 10.3342 11.6977 10.6293 11.4737L11.2033 11.0117C11.4787 10.7877 11.67 10.258 11.3748 9.73532C10.924 8.95454 10.3977 8.21991 9.80332 7.54198C9.67369 7.38244 9.4919 7.27377 9.28999 7.23515L9.29232 7.23632ZM14.6765 5.83398C14.5218 5.83398 14.3734 5.89544 14.264 6.00484C14.1546 6.11424 14.0932 6.26261 14.0932 6.41732C14.0932 6.57203 14.1546 6.7204 14.264 6.8298C14.3734 6.93919 14.5218 7.00065 14.6765 7.00065C16.1512 7.00065 17.3762 7.48248 18.3457 8.40648C18.8438 8.91165 19.2323 9.51015 19.4867 10.1658C19.7422 10.8227 19.8588 11.5238 19.8285 12.2262C19.822 12.3809 19.8772 12.5318 19.982 12.6458C20.0868 12.7598 20.2326 12.8275 20.3873 12.834C20.542 12.8405 20.693 12.7853 20.807 12.6805C20.921 12.5757 20.9887 12.4299 20.9952 12.2752C21.0313 11.4112 20.8879 10.5492 20.574 9.74348C20.2587 8.93398 19.7806 8.19779 19.1693 7.58048L19.1577 7.56882C17.9548 6.41965 16.4335 5.83398 14.6765 5.83398Z" fill="#6E42ED"/>
<path d="M14.6361 7.75117C14.4814 7.75117 14.333 7.81262 14.2236 7.92202C14.1142 8.03142 14.0527 8.17979 14.0527 8.3345C14.0527 8.48921 14.1142 8.63758 14.2236 8.74698C14.333 8.85637 14.4814 8.91783 14.6361 8.91783H14.6559C15.7199 8.99367 16.4946 9.34833 17.0371 9.9305C17.5936 10.5302 17.8817 11.2757 17.8596 12.1973C17.856 12.352 17.9141 12.5018 18.0209 12.6137C18.1278 12.7257 18.2748 12.7905 18.4295 12.7941C18.5842 12.7976 18.734 12.7396 18.8459 12.6327C18.9578 12.5258 19.0227 12.3789 19.0262 12.2242C19.0542 11.0143 18.6646 9.97017 17.8922 9.13717V9.13483C17.1024 8.28783 16.0186 7.83983 14.7142 7.75233L14.6944 7.75L14.6361 7.75117Z" fill="#6E42ED"/>
<path d="M14.6141 9.70538C14.536 9.69849 14.4574 9.70741 14.3828 9.73159C14.3083 9.75577 14.2394 9.79473 14.1802 9.84613C14.1211 9.89753 14.0729 9.96032 14.0385 10.0308C14.0042 10.1012 13.9844 10.1778 13.9803 10.2561C13.9762 10.3344 13.9879 10.4127 14.0148 10.4863C14.0416 10.5599 14.083 10.6274 14.1365 10.6846C14.19 10.7419 14.2545 10.7878 14.3261 10.8196C14.3978 10.8514 14.4751 10.8685 14.5534 10.8697C15.0411 10.8954 15.3526 11.0424 15.5486 11.2395C15.7458 11.4379 15.8928 11.7564 15.9196 12.2545C15.9211 12.3328 15.9383 12.41 15.9702 12.4815C16.0021 12.553 16.0481 12.6173 16.1054 12.6707C16.1627 12.724 16.2302 12.7653 16.3038 12.792C16.3774 12.8187 16.4556 12.8304 16.5338 12.8262C16.612 12.8221 16.6885 12.8022 16.7589 12.7678C16.8292 12.7335 16.8919 12.6853 16.9433 12.6262C16.9946 12.5671 17.0335 12.4982 17.0577 12.4238C17.0818 12.3493 17.0908 12.2707 17.0839 12.1927C17.0466 11.4927 16.8273 10.8744 16.3781 10.4194C15.9266 9.96438 15.3118 9.74272 14.6141 9.70538Z" fill="#6E42ED"/>
<path fill-rule="evenodd" clip-rule="evenodd" d="M8.24461 2.78059C11.957 1.95074 15.8069 1.95074 19.5193 2.78059L19.9148 2.86809C21 3.1107 21.9967 3.64944 22.7942 4.42445C23.5916 5.19946 24.1586 6.18039 24.4321 7.25825C25.3744 10.9716 25.3744 14.8615 24.4321 18.5749C24.1586 19.6528 23.5916 20.6337 22.7942 21.4087C21.9967 22.1837 21 22.7225 19.9148 22.9651L19.5181 23.0526C17.193 23.5726 14.8071 23.7685 12.4283 23.6348L9.33311 26.4044C9.21642 26.5089 9.07383 26.5801 8.92021 26.6107C8.7666 26.6413 8.60759 26.63 8.4598 26.5782C8.312 26.5264 8.18083 26.4358 8.07998 26.3159C7.97913 26.1961 7.91229 26.0514 7.88644 25.8969L7.37428 22.8379C6.39216 22.5323 5.50482 21.98 4.79708 21.2336C4.08933 20.4873 3.58482 19.5719 3.33178 18.5749C2.38941 14.8616 2.38941 10.9716 3.33178 7.25825C3.60527 6.18039 4.17224 5.19946 4.9697 4.42445C5.76716 3.64944 6.76388 3.1107 7.84911 2.86809L8.24461 2.78059ZM19.1378 4.48742C15.6766 3.71369 12.0873 3.71369 8.62611 4.48742L8.22944 4.57609C7.46028 4.74835 6.75392 5.13044 6.1888 5.67991C5.62367 6.22938 5.22191 6.92473 5.02811 7.68875C4.15744 11.1196 4.15744 14.7136 5.02811 18.1444C5.222 18.9086 5.62394 19.604 6.18929 20.1535C6.75463 20.703 7.46124 21.085 8.23061 21.2571L8.33561 21.2804C8.50547 21.3184 8.66014 21.4062 8.77985 21.5325C8.89955 21.6589 8.97885 21.8181 9.00761 21.9898L9.35061 24.0408L11.5346 22.0866C11.6218 22.0083 11.7239 21.9484 11.8347 21.9103C11.9455 21.8722 12.0629 21.8568 12.1798 21.8649C14.512 22.0304 16.8559 21.8555 19.1378 21.3458L19.5333 21.2571C20.3027 21.085 21.0093 20.703 21.5746 20.1535C22.1399 19.604 22.5419 18.9086 22.7358 18.1444C23.6061 14.7144 23.6061 11.1199 22.7358 7.68875C22.5419 6.92459 22.1399 6.22913 21.5746 5.67964C21.0093 5.13016 20.3027 4.74816 19.5333 4.57609L19.1378 4.48742Z" fill="#6E42ED"/>
</svg>
