<svg width="33" height="33" viewBox="0 0 33 33" fill="none" xmlns="http://www.w3.org/2000/svg">
<g clip-path="url(#clip0_629_784)">
<rect width="33" height="33" rx="7" fill="white"/>
<path fill-rule="evenodd" clip-rule="evenodd" d="M16.7507 23.2241C20.3259 23.2241 23.2241 20.3259 23.2241 16.7507C23.2241 13.1755 20.3259 10.2773 16.7507 10.2773C13.1755 10.2773 10.2773 13.1755 10.2773 16.7507C10.2773 20.3259 13.1755 23.2241 16.7507 23.2241ZM16.7507 29.5014C23.7927 29.5014 29.5014 23.7927 29.5014 16.7507C29.5014 9.70868 23.7927 4 16.7507 4C9.70868 4 4 9.70868 4 16.7507C4 23.7927 9.70868 29.5014 16.7507 29.5014Z" fill="#6E42ED"/>
<g filter="url(#filter0_d_629_784)">
<path d="M30 12C30 14.7614 27.7614 17 25 17C22.2386 17 20 14.7614 20 12C20 9.23858 22.2386 7 25 7C27.7614 7 30 9.23858 30 12Z" fill="white"/>
</g>
</g>
<defs>
<filter id="filter0_d_629_784" x="15" y="6" width="20" height="20" filterUnits="userSpaceOnUse" color-interpolation-filters="sRGB">
<feFlood flood-opacity="0" result="BackgroundImageFix"/>
<feColorMatrix in="SourceAlpha" type="matrix" values="0 0 0 0 0 0 0 0 0 0 0 0 0 0 0 0 0 0 127 0" result="hardAlpha"/>
<feOffset dy="4"/>
<feGaussianBlur stdDeviation="2.5"/>
<feComposite in2="hardAlpha" operator="out"/>
<feColorMatrix type="matrix" values="0 0 0 0 0 0 0 0 0 0 0 0 0 0 0 0 0 0 0.25 0"/>
<feBlend mode="multiply" in2="BackgroundImageFix" result="effect1_dropShadow_629_784"/>
<feBlend mode="normal" in="SourceGraphic" in2="effect1_dropShadow_629_784" result="shape"/>
</filter>
<clipPath id="clip0_629_784">
<rect width="33" height="33" rx="7" fill="white"/>
</clipPath>
</defs>
</svg>
