<svg width="165" height="44" viewBox="0 0 165 44" fill="none" xmlns="http://www.w3.org/2000/svg">
<path d="M64.1337 16.728V29.8678H59.5517V25.1888C58.582 25.6899 57.4668 25.9404 56.2062 25.9404C54.3637 25.9404 52.9818 25.5282 52.0606 24.704C51.1393 23.8797 50.6787 22.5787 50.6787 20.8008V16.728H55.2849V20.4857C55.2849 21.213 55.4465 21.7382 55.7698 22.0615C56.1092 22.3685 56.6102 22.5221 57.2729 22.5221C58.1133 22.5221 58.8729 22.3443 59.5517 21.9887V16.728H64.1337Z" fill="white"/>
<path d="M80.5575 23.3221C80.5575 23.3544 80.5333 23.7342 80.4848 24.4615H70.933C71.1269 25.1404 71.4987 25.6656 72.0482 26.0374C72.6138 26.3929 73.3169 26.5707 74.1573 26.5707C74.7877 26.5707 75.3291 26.4818 75.7816 26.304C76.2503 26.1262 76.719 25.8353 77.1877 25.4313L79.6121 27.9526C78.3352 29.3748 76.4685 30.086 74.0119 30.086C72.4765 30.086 71.1269 29.7951 69.9633 29.2132C68.7996 28.6314 67.8945 27.8233 67.248 26.7889C66.6177 25.7545 66.3025 24.5828 66.3025 23.2736C66.3025 21.9807 66.6096 20.8251 67.2238 19.8068C67.8541 18.7725 68.7188 17.9644 69.8178 17.3825C70.9168 16.8007 72.1532 16.5098 73.527 16.5098C74.8361 16.5098 76.0241 16.7845 77.0908 17.334C78.1575 17.8674 78.9979 18.6513 79.6121 19.6856C80.2424 20.7038 80.5575 21.916 80.5575 23.3221ZM73.5513 19.7826C72.8401 19.7826 72.2421 19.9846 71.7573 20.3887C71.2885 20.7927 70.9895 21.3422 70.8603 22.0372H76.2423C76.113 21.3422 75.8059 20.7927 75.321 20.3887C74.8523 19.9846 74.2624 19.7826 73.5513 19.7826Z" fill="white"/>
<path d="M93.5862 22.9827C95.0893 23.4837 95.8408 24.5181 95.8408 26.0858C95.8408 27.2657 95.3802 28.195 94.459 28.8738C93.5377 29.5365 92.1801 29.8678 90.3861 29.8678H82.9919V16.728H90.0467C91.7599 16.728 93.0852 17.027 94.0226 17.625C94.9761 18.223 95.4529 19.0634 95.4529 20.1462C95.4529 20.7766 95.2913 21.3342 94.9681 21.819C94.6448 22.3039 94.1842 22.6918 93.5862 22.9827ZM87.1133 22.013H89.6346C90.7013 22.013 91.2346 21.617 91.2346 20.8251C91.2346 20.0654 90.7013 19.6856 89.6346 19.6856H87.1133V22.013ZM89.974 26.8859C91.0891 26.8859 91.6467 26.4818 91.6467 25.6737C91.6467 24.8656 91.1053 24.4615 90.0224 24.4615H87.1133V26.8859H89.974Z" fill="white"/>
<path d="M98.1676 16.728H102.75V23.613L108.253 16.728H112.495V29.8678H107.889V22.9585L102.434 29.8678H98.1676V16.728Z" fill="white"/>
<path d="M131.132 26.1828V32.583H126.866V29.8678H118.599V32.583H114.308V26.1828H114.792C115.584 26.1667 116.134 25.7384 116.441 24.8979C116.748 24.0413 116.934 22.8453 116.999 21.3099L117.168 16.728H129.314V26.1828H131.132ZM121.144 21.6493C121.096 22.8292 121.007 23.7747 120.877 24.4858C120.748 25.1969 120.506 25.7626 120.15 26.1828H124.708V20.3887H121.193L121.144 21.6493Z" fill="white"/>
<path d="M133.112 16.728H137.694V21.6008H142.421V16.728H147.028V29.8678H142.421V25.2616H137.694V29.8678H133.112V16.728Z" fill="white"/>
<path d="M156.607 30.086C155.201 30.086 153.932 29.7951 152.801 29.2132C151.67 28.6314 150.781 27.8233 150.134 26.7889C149.504 25.7545 149.189 24.5828 149.189 23.2736C149.189 21.9807 149.504 20.817 150.134 19.7826C150.781 18.7482 151.662 17.9482 152.777 17.3825C153.908 16.8007 155.185 16.5098 156.607 16.5098C158.03 16.5098 159.306 16.8007 160.438 17.3825C161.569 17.9482 162.45 18.7482 163.08 19.7826C163.71 20.8008 164.026 21.9645 164.026 23.2736C164.026 24.5828 163.71 25.7545 163.08 26.7889C162.45 27.8233 161.569 28.6314 160.438 29.2132C159.306 29.7951 158.03 30.086 156.607 30.086ZM156.607 26.4252C157.415 26.4252 158.078 26.1505 158.595 25.601C159.112 25.0353 159.371 24.2595 159.371 23.2736C159.371 22.3039 159.112 21.5443 158.595 20.9948C158.078 20.4452 157.415 20.1705 156.607 20.1705C155.799 20.1705 155.136 20.4452 154.619 20.9948C154.102 21.5443 153.843 22.3039 153.843 23.2736C153.843 24.2595 154.102 25.0353 154.619 25.601C155.136 26.1505 155.799 26.4252 156.607 26.4252Z" fill="white"/>
<rect width="44" height="44" rx="10" fill="white"/>
<circle cx="21.7507" cy="21.7507" r="9.61206" stroke="#6E42ED" stroke-width="6.27727"/>
<g filter="url(#filter0_d_519_653)">
<circle cx="31" cy="18" r="5" fill="white"/>
</g>
<defs>
<filter id="filter0_d_519_653" x="21" y="12" width="20" height="20" filterUnits="userSpaceOnUse" color-interpolation-filters="sRGB">
<feFlood flood-opacity="0" result="BackgroundImageFix"/>
<feColorMatrix in="SourceAlpha" type="matrix" values="0 0 0 0 0 0 0 0 0 0 0 0 0 0 0 0 0 0 127 0" result="hardAlpha"/>
<feOffset dy="4"/>
<feGaussianBlur stdDeviation="2.5"/>
<feComposite in2="hardAlpha" operator="out"/>
<feColorMatrix type="matrix" values="0 0 0 0 0 0 0 0 0 0 0 0 0 0 0 0 0 0 0.25 0"/>
<feBlend mode="multiply" in2="BackgroundImageFix" result="effect1_dropShadow_519_653"/>
<feBlend mode="normal" in="SourceGraphic" in2="effect1_dropShadow_519_653" result="shape"/>
</filter>
</defs>
</svg>
